<?xml version="1.0" encoding="UTF-8" standalone="no"?><!-- Generator: Gravit.io --><svg xmlns="http://www.w3.org/2000/svg" xmlns:xlink="http://www.w3.org/1999/xlink" style="isolation:isolate" viewBox="0 0 130 675" width="130pt" height="675pt"><defs><clipPath id="_clipPath_cLTOP4OnFRubhJjFmYa9abzuYKaceRMG"><rect width="130" height="675"/></clipPath></defs><g clip-path="url(#_clipPath_cLTOP4OnFRubhJjFmYa9abzuYKaceRMG)"><g><g><polygon points="164,23.732,164,776.268,0.246,400" fill="none" vector-effect="non-scaling-stroke" stroke-width="1" stroke="rgb(195,195,195)" stroke-linejoin="miter" stroke-linecap="square" stroke-miterlimit="5"/><polygon points="162,131.73,162,674.27,-0.073,403" fill="none" vector-effect="non-scaling-stroke" stroke-width="1" stroke="rgb(195,195,195)" stroke-linejoin="miter" stroke-linecap="square" stroke-miterlimit="4"/><polygon points="197,200.516,197,603.765,-0.941,402.141" fill="none" vector-effect="non-scaling-stroke" stroke-width="1" stroke="rgb(195,195,195)" stroke-linejoin="miter" stroke-linecap="square" stroke-miterlimit="3"/><polygon points="399,289.516,399,515,-0.941,402.258" fill="none" vector-effect="non-scaling-stroke" stroke-width="1" stroke="rgb(195,195,195)" stroke-linejoin="miter" stroke-linecap="square" stroke-miterlimit="4"/></g><g><polygon points="164,-36.268,164,716.268,0.246,340" fill="none" vector-effect="non-scaling-stroke" stroke-width="1" stroke="rgb(195,195,195)" stroke-linejoin="miter" stroke-linecap="square" stroke-miterlimit="5"/><polygon points="162,71.73,162,614.27,-0.073,343" fill="none" vector-effect="non-scaling-stroke" stroke-width="1" stroke="rgb(195,195,195)" stroke-linejoin="miter" stroke-linecap="square" stroke-miterlimit="4"/><polygon points="197,140.516,197,543.765,-0.941,342.141" fill="none" vector-effect="non-scaling-stroke" stroke-width="1" stroke="rgb(195,195,195)" stroke-linejoin="miter" stroke-linecap="square" stroke-miterlimit="3"/><polygon points="399,229.516,399,455,-0.941,342.258" fill="none" vector-effect="non-scaling-stroke" stroke-width="1" stroke="rgb(195,195,195)" stroke-linejoin="miter" stroke-linecap="square" stroke-miterlimit="4"/></g><g><polygon points="164,-106.268,164,646.268,0.246,270" fill="none" vector-effect="non-scaling-stroke" stroke-width="1" stroke="rgb(195,195,195)" stroke-linejoin="miter" stroke-linecap="square" stroke-miterlimit="5"/><polygon points="162,1.73,162,544.27,-0.073,273" fill="none" vector-effect="non-scaling-stroke" stroke-width="1" stroke="rgb(195,195,195)" stroke-linejoin="miter" stroke-linecap="square" stroke-miterlimit="4"/><polygon points="197,70.516,197,473.765,-0.941,272.141" fill="none" vector-effect="non-scaling-stroke" stroke-width="1" stroke="rgb(195,195,195)" stroke-linejoin="miter" stroke-linecap="square" stroke-miterlimit="3"/><polygon points="399,159.516,399,385,-0.941,272.258" fill="none" vector-effect="non-scaling-stroke" stroke-width="1" stroke="rgb(195,195,195)" stroke-linejoin="miter" stroke-linecap="square" stroke-miterlimit="4"/></g></g></g></svg>