<?xml version="1.0" encoding="UTF-8" standalone="no"?><!-- Generator: Gravit.io --><svg xmlns="http://www.w3.org/2000/svg" xmlns:xlink="http://www.w3.org/1999/xlink" style="isolation:isolate" viewBox="0 0 130 772" width="130pt" height="772pt"><defs><clipPath id="_clipPath_gxh351BLdBgYS2pOnYdIHMbRA4KY002O"><rect width="130" height="772"/></clipPath></defs><g clip-path="url(#_clipPath_gxh351BLdBgYS2pOnYdIHMbRA4KY002O)"><g><path d=" M 130.806 737.539 L -0.941 708.84 L 131 680.1 L 130.806 737.539 Z " fill="none" vector-effect="non-scaling-stroke" stroke-width="1" stroke="rgb(195,195,195)" stroke-linejoin="miter" stroke-linecap="square" stroke-miterlimit="3"/><path d=" M 130.806 97.826 L -0.941 69.128 L 131 40.388 L 130.806 97.826 Z " fill="none" vector-effect="non-scaling-stroke" stroke-width="1" stroke="rgb(195,195,195)" stroke-linejoin="miter" stroke-linecap="square" stroke-miterlimit="3"/></g><path d=" M 131.371 244.212 L 98.029 217.709 L -0.941 139.036 L 98.029 60.364 L 130.783 34.328 L 131.371 244.212 Z " fill="none" vector-effect="non-scaling-stroke" stroke-width="1" stroke="rgb(195,195,195)" stroke-linejoin="miter" stroke-linecap="square" stroke-miterlimit="3"/><path d=" M 131.076 168.17 L -0.941 139.128 L 130.738 110.16 L 131.076 168.17 Z " fill="none" vector-effect="non-scaling-stroke" stroke-width="1" stroke="rgb(195,195,195)" stroke-linejoin="miter" stroke-linecap="square" stroke-miterlimit="3"/><path d=" M 131.061 380.99 L 80.963 315.554 L -0.073 209.707 L 80.963 103.86 L 130.67 38.935 L 131.061 380.99 Z " fill="none" vector-effect="non-scaling-stroke" stroke-width="1" stroke="rgb(195,195,195)" stroke-linejoin="miter" stroke-linecap="square" stroke-miterlimit="3"/><path d=" M 131.401 314.236 L 98.029 287.709 L -0.941 209.036 L 98.029 130.364 L 130.892 104.242 L 131.401 314.236 Z " fill="none" vector-effect="non-scaling-stroke" stroke-width="1" stroke="rgb(195,195,195)" stroke-linejoin="miter" stroke-linecap="square" stroke-miterlimit="3"/><path d=" M 132.144 238.405 L -0.941 209.128 L 132.007 179.881 L 132.144 238.405 Z " fill="none" vector-effect="non-scaling-stroke" stroke-width="1" stroke="rgb(195,195,195)" stroke-linejoin="miter" stroke-linecap="square" stroke-miterlimit="3"/><path d=" M 130.858 450.725 L 80.963 385.554 L -0.073 279.707 L 80.963 173.86 L 130.685 108.914 L 130.858 450.725 Z " fill="none" vector-effect="non-scaling-stroke" stroke-width="1" stroke="rgb(195,195,195)" stroke-linejoin="miter" stroke-linecap="square" stroke-miterlimit="3"/><path d=" M 130.997 383.915 L 98.029 357.709 L -0.941 279.036 L 98.029 200.364 L 130.866 174.262 L 130.997 383.915 Z " fill="none" vector-effect="non-scaling-stroke" stroke-width="1" stroke="rgb(195,195,195)" stroke-linejoin="miter" stroke-linecap="square" stroke-miterlimit="3"/><path d=" M 131.204 308.198 L -0.941 279.128 L 130.988 250.105 L 131.204 308.198 Z " fill="none" vector-effect="non-scaling-stroke" stroke-width="1" stroke="rgb(195,195,195)" stroke-linejoin="miter" stroke-linecap="square" stroke-miterlimit="3"/><path d=" M 131.252 521.24 L 80.963 455.554 L -0.073 349.707 L 80.963 243.86 L 130.857 178.69 L 131.252 521.24 Z " fill="none" vector-effect="non-scaling-stroke" stroke-width="1" stroke="rgb(195,195,195)" stroke-linejoin="miter" stroke-linecap="square" stroke-miterlimit="3"/><path d=" M 131.746 454.51 L 98.029 427.709 L -0.941 349.036 L 98.029 270.364 L 130.813 244.304 L 131.746 454.51 Z " fill="none" vector-effect="non-scaling-stroke" stroke-width="1" stroke="rgb(195,195,195)" stroke-linejoin="miter" stroke-linecap="square" stroke-miterlimit="3"/><path d=" M 132.053 378.385 L -0.941 349.128 L 131.117 320.077 L 132.053 378.385 Z " fill="none" vector-effect="non-scaling-stroke" stroke-width="1" stroke="rgb(195,195,195)" stroke-linejoin="miter" stroke-linecap="square" stroke-miterlimit="3"/><path d=" M 131.157 591.115 L 80.963 525.554 L -0.073 419.707 L 80.963 313.86 L 130.717 248.872 L 131.157 591.115 Z " fill="none" vector-effect="non-scaling-stroke" stroke-width="1" stroke="rgb(195,195,195)" stroke-linejoin="miter" stroke-linecap="square" stroke-miterlimit="3"/><path d=" M 131.135 524.024 L 98.029 497.709 L -0.941 419.036 L 98.029 340.364 L 130.892 314.242 L 131.135 524.024 Z " fill="none" vector-effect="non-scaling-stroke" stroke-width="1" stroke="rgb(195,195,195)" stroke-linejoin="miter" stroke-linecap="square" stroke-miterlimit="3"/><path d=" M 131.581 448.281 L -0.941 419.128 L 131.117 390.077 L 131.581 448.281 Z " fill="none" vector-effect="non-scaling-stroke" stroke-width="1" stroke="rgb(195,195,195)" stroke-linejoin="miter" stroke-linecap="square" stroke-miterlimit="3"/><path d=" M 131.205 671.178 L 80.963 605.554 L -0.073 499.707 L 80.963 393.86 L 130.857 328.69 L 131.205 671.178 Z " fill="none" vector-effect="non-scaling-stroke" stroke-width="1" stroke="rgb(195,195,195)" stroke-linejoin="miter" stroke-linecap="square" stroke-miterlimit="3"/><path d=" M 131.105 604 L 98.029 577.709 L -0.941 499.036 L 98.029 420.364 L 130.547 394.516 L 131.105 604 Z " fill="none" vector-effect="non-scaling-stroke" stroke-width="1" stroke="rgb(195,195,195)" stroke-linejoin="miter" stroke-linecap="square" stroke-miterlimit="3"/><path d=" M 131.394 528.24 L -0.941 499.128 L 131.117 470.077 L 131.394 528.24 Z " fill="none" vector-effect="non-scaling-stroke" stroke-width="1" stroke="rgb(195,195,195)" stroke-linejoin="miter" stroke-linecap="square" stroke-miterlimit="3"/><path d=" M 131.157 741.115 L 80.963 675.554 L -0.073 569.707 L 80.963 463.86 L 130.622 398.997 L 131.157 741.115 Z " fill="none" vector-effect="non-scaling-stroke" stroke-width="1" stroke="rgb(195,195,195)" stroke-linejoin="miter" stroke-linecap="square" stroke-miterlimit="3"/><path d=" M 131.449 674.274 L 98.029 647.709 L -0.941 569.036 L 98.029 490.364 L 130.813 464.304 L 131.449 674.274 Z " fill="none" vector-effect="non-scaling-stroke" stroke-width="1" stroke="rgb(195,195,195)" stroke-linejoin="miter" stroke-linecap="square" stroke-miterlimit="3"/><path d=" M 131.013 598.156 L -0.941 569.128 L 131.304 540.036 L 131.013 598.156 Z " fill="none" vector-effect="non-scaling-stroke" stroke-width="1" stroke="rgb(195,195,195)" stroke-linejoin="miter" stroke-linecap="square" stroke-miterlimit="3"/><path d=" M 131.105 744 L 98.029 717.709 L -0.941 639.036 L 98.029 560.364 L 130.892 534.242 L 131.105 744 Z " fill="none" vector-effect="non-scaling-stroke" stroke-width="1" stroke="rgb(195,195,195)" stroke-linejoin="miter" stroke-linecap="square" stroke-miterlimit="3"/><path d=" M 130.826 668.115 L -0.941 639.128 L 130.832 610.139 L 130.826 668.115 Z " fill="none" vector-effect="non-scaling-stroke" stroke-width="1" stroke="rgb(195,195,195)" stroke-linejoin="miter" stroke-linecap="square" stroke-miterlimit="3"/></g></svg>