<?xml version="1.0" encoding="UTF-8" standalone="no"?><!-- Generator: Gravit.io --><svg xmlns="http://www.w3.org/2000/svg" xmlns:xlink="http://www.w3.org/1999/xlink" style="isolation:isolate" viewBox="0 0 130 772" width="130pt" height="772pt"><defs><clipPath id="_clipPath_lRXMD5X13KzyHGQnE3R5qGfxTxLWOqJ7"><rect width="130" height="772"/></clipPath></defs><g clip-path="url(#_clipPath_lRXMD5X13KzyHGQnE3R5qGfxTxLWOqJ7)"><g><polygon points="399,-18.854,399,157.11,-0.941,69.128" fill="none" vector-effect="non-scaling-stroke" stroke-width="1" stroke="rgb(195,195,195)" stroke-linejoin="miter" stroke-linecap="square" stroke-miterlimit="5"/><polygon points="399,621.146,399,797.11,-0.941,709.128" fill="none" vector-effect="non-scaling-stroke" stroke-width="1" stroke="rgb(195,195,195)" stroke-linejoin="miter" stroke-linecap="square" stroke-miterlimit="5"/></g><g><polygon points="197,-18.308,197,296.381,-0.941,139.036" fill="none" vector-effect="non-scaling-stroke" stroke-width="1" stroke="rgb(195,195,195)" stroke-linejoin="miter" stroke-linecap="square" stroke-miterlimit="3"/><polygon points="399,51.146,399,227.11,-0.941,139.128" fill="none" vector-effect="non-scaling-stroke" stroke-width="1" stroke="rgb(195,195,195)" stroke-linejoin="miter" stroke-linecap="square" stroke-miterlimit="5"/></g><g><polygon points="162,-1.988,162,421.402,-0.073,209.707" fill="none" vector-effect="non-scaling-stroke" stroke-width="1" stroke="rgb(195,195,195)" stroke-linejoin="miter" stroke-linecap="square" stroke-miterlimit="4"/><polygon points="197,51.692,197,366.381,-0.941,209.036" fill="none" vector-effect="non-scaling-stroke" stroke-width="1" stroke="rgb(195,195,195)" stroke-linejoin="miter" stroke-linecap="square" stroke-miterlimit="3"/><polygon points="399,121.146,399,297.11,-0.941,209.128" fill="none" vector-effect="non-scaling-stroke" stroke-width="1" stroke="rgb(195,195,195)" stroke-linejoin="miter" stroke-linecap="square" stroke-miterlimit="5"/></g><g><polygon points="162,68.012,162,491.402,-0.073,279.707" fill="none" vector-effect="non-scaling-stroke" stroke-width="1" stroke="rgb(195,195,195)" stroke-linejoin="miter" stroke-linecap="square" stroke-miterlimit="4"/><polygon points="197,121.692,197,436.381,-0.941,279.036" fill="none" vector-effect="non-scaling-stroke" stroke-width="1" stroke="rgb(195,195,195)" stroke-linejoin="miter" stroke-linecap="square" stroke-miterlimit="3"/><polygon points="399,191.146,399,367.11,-0.941,279.128" fill="none" vector-effect="non-scaling-stroke" stroke-width="1" stroke="rgb(195,195,195)" stroke-linejoin="miter" stroke-linecap="square" stroke-miterlimit="5"/></g><g><polygon points="162,138.012,162,561.402,-0.073,349.707" fill="none" vector-effect="non-scaling-stroke" stroke-width="1" stroke="rgb(195,195,195)" stroke-linejoin="miter" stroke-linecap="square" stroke-miterlimit="4"/><polygon points="197,191.692,197,506.381,-0.941,349.036" fill="none" vector-effect="non-scaling-stroke" stroke-width="1" stroke="rgb(195,195,195)" stroke-linejoin="miter" stroke-linecap="square" stroke-miterlimit="3"/><polygon points="399,261.146,399,437.11,-0.941,349.128" fill="none" vector-effect="non-scaling-stroke" stroke-width="1" stroke="rgb(195,195,195)" stroke-linejoin="miter" stroke-linecap="square" stroke-miterlimit="5"/></g><g><polygon points="162,208.012,162,631.402,-0.073,419.707" fill="none" vector-effect="non-scaling-stroke" stroke-width="1" stroke="rgb(195,195,195)" stroke-linejoin="miter" stroke-linecap="square" stroke-miterlimit="4"/><polygon points="197,261.692,197,576.381,-0.941,419.036" fill="none" vector-effect="non-scaling-stroke" stroke-width="1" stroke="rgb(195,195,195)" stroke-linejoin="miter" stroke-linecap="square" stroke-miterlimit="3"/><polygon points="399,331.146,399,507.11,-0.941,419.128" fill="none" vector-effect="non-scaling-stroke" stroke-width="1" stroke="rgb(195,195,195)" stroke-linejoin="miter" stroke-linecap="square" stroke-miterlimit="5"/></g><g><polygon points="162,288.012,162,711.402,-0.073,499.707" fill="none" vector-effect="non-scaling-stroke" stroke-width="1" stroke="rgb(195,195,195)" stroke-linejoin="miter" stroke-linecap="square" stroke-miterlimit="4"/><polygon points="197,341.692,197,656.381,-0.941,499.036" fill="none" vector-effect="non-scaling-stroke" stroke-width="1" stroke="rgb(195,195,195)" stroke-linejoin="miter" stroke-linecap="square" stroke-miterlimit="3"/><polygon points="399,411.146,399,587.11,-0.941,499.128" fill="none" vector-effect="non-scaling-stroke" stroke-width="1" stroke="rgb(195,195,195)" stroke-linejoin="miter" stroke-linecap="square" stroke-miterlimit="5"/></g><g><polygon points="162,358.012,162,781.402,-0.073,569.707" fill="none" vector-effect="non-scaling-stroke" stroke-width="1" stroke="rgb(195,195,195)" stroke-linejoin="miter" stroke-linecap="square" stroke-miterlimit="4"/><polygon points="197,411.692,197,726.381,-0.941,569.036" fill="none" vector-effect="non-scaling-stroke" stroke-width="1" stroke="rgb(195,195,195)" stroke-linejoin="miter" stroke-linecap="square" stroke-miterlimit="3"/><polygon points="399,481.146,399,657.11,-0.941,569.128" fill="none" vector-effect="non-scaling-stroke" stroke-width="1" stroke="rgb(195,195,195)" stroke-linejoin="miter" stroke-linecap="square" stroke-miterlimit="5"/></g><g><polygon points="197,481.692,197,796.381,-0.941,639.036" fill="none" vector-effect="non-scaling-stroke" stroke-width="1" stroke="rgb(195,195,195)" stroke-linejoin="miter" stroke-linecap="square" stroke-miterlimit="3"/><polygon points="399,551.146,399,727.11,-0.941,639.128" fill="none" vector-effect="non-scaling-stroke" stroke-width="1" stroke="rgb(195,195,195)" stroke-linejoin="miter" stroke-linecap="square" stroke-miterlimit="5"/></g></g></svg>