<?xml version="1.0" encoding="UTF-8" standalone="no"?><!-- Generator: Gravit.io --><svg xmlns="http://www.w3.org/2000/svg" xmlns:xlink="http://www.w3.org/1999/xlink" style="isolation:isolate" viewBox="0 0 300 1000" width="300pt" height="1000pt"><defs><clipPath id="_clipPath_MINgpypE91Sow3x2VsV4mHkTzV8uLZYQ"><rect width="300" height="1000"/></clipPath></defs><g clip-path="url(#_clipPath_MINgpypE91Sow3x2VsV4mHkTzV8uLZYQ)"><rect width="300" height="1000" style="fill:rgb(0,0,0)" fill-opacity="0"/><g><g opacity="0"><rect x="5.5" y="449" width="200" height="100" transform="matrix(1,0,0,1,0,0)" fill="rgb(235,235,235)"/></g><line x1="5.5" y1="449" x2="5.5" y2="549"/><g><linearGradient id="_lgradient_3" x1="0.5966760299625471" y1="-0.1454936594202897" x2="0.5428370786516851" y2="1.922214673913044" gradientTransform="matrix(89,0,0,443,205.5,8)" gradientUnits="userSpaceOnUse"><stop offset="2.1739130434782608%" stop-opacity="0" style="stop-color:rgb(195,195,195)"/><stop offset="54.347826086956516%" stop-opacity="1" style="stop-color:rgb(195,195,195)"/></linearGradient><path d=" M 205.5 451 C 302.631 328.675 215.013 24.086 294.5 8 M 205.5 451 C 313 340.25 216.419 47.281 294.5 8" fill-rule="evenodd" fill="url(#_lgradient_3)"/><linearGradient id="_lgradient_4" x1="0.5966760299625471" y1="-0.1454936594202897" x2="0.5428370786516851" y2="1.922214673913044" gradientTransform="matrix(89,0,0,-438,205.5,987)" gradientUnits="userSpaceOnUse"><stop offset="2.1739130434782608%" stop-opacity="0" style="stop-color:rgb(195,195,195)"/><stop offset="54.347826086956516%" stop-opacity="1" style="stop-color:rgb(195,195,195)"/></linearGradient><path d=" M 205.5 549 C 302.631 669.945 215.013 971.096 294.5 987 M 205.5 549 C 313 658.5 216.419 948.162 294.5 987" fill-rule="evenodd" fill="url(#_lgradient_4)"/><g><linearGradient id="_lgradient_5" x1="0.5" y1="0" x2="0.5000000000000001" y2="1" gradientTransform="matrix(2.5,0,0,89,248.75,462.21)" gradientUnits="userSpaceOnUse"><stop offset="0%" stop-opacity="0" style="stop-color:rgb(195,195,195)"/><stop offset="1.7391304347826086%" stop-opacity="0" style="stop-color:rgb(235,235,235)"/><stop offset="46.52173913043478%" stop-opacity="1" style="stop-color:rgb(195,195,195)"/></linearGradient><rect x="248.75" y="462.21" width="2.5" height="89" transform="matrix(0,1,-1,0,756.71,256.71)" fill="url(#_lgradient_5)"/></g></g><g><line x1="185.5" y1="549" x2="185.5" y2="449" vector-effect="non-scaling-stroke" stroke-width="1" stroke="rgb(255,114,114)" stroke-linejoin="miter" stroke-linecap="square" stroke-miterlimit="3"/><line x1="205.5" y1="549" x2="205.5" y2="449" vector-effect="non-scaling-stroke" stroke-width="1" stroke="rgb(255,114,114)" stroke-linejoin="miter" stroke-linecap="square" stroke-miterlimit="3"/><line x1="165.5" y1="549" x2="165.5" y2="449" vector-effect="non-scaling-stroke" stroke-width="1" stroke="rgb(255,114,114)" stroke-linejoin="miter" stroke-linecap="square" stroke-miterlimit="3"/><line x1="145.5" y1="549" x2="145.5" y2="449" vector-effect="non-scaling-stroke" stroke-width="1" stroke="rgb(255,114,114)" stroke-linejoin="miter" stroke-linecap="square" stroke-miterlimit="3"/><line x1="125.5" y1="549" x2="125.5" y2="449" vector-effect="non-scaling-stroke" stroke-width="1" stroke="rgb(255,114,114)" stroke-linejoin="miter" stroke-linecap="square" stroke-miterlimit="3"/><line x1="105.5" y1="549" x2="105.5" y2="449" vector-effect="non-scaling-stroke" stroke-width="1" stroke="rgb(255,114,114)" stroke-linejoin="miter" stroke-linecap="square" stroke-miterlimit="3"/><line x1="85.5" y1="549" x2="85.5" y2="449" vector-effect="non-scaling-stroke" stroke-width="1" stroke="rgb(255,114,114)" stroke-linejoin="miter" stroke-linecap="square" stroke-miterlimit="3"/><line x1="65.5" y1="549" x2="65.5" y2="449" vector-effect="non-scaling-stroke" stroke-width="1" stroke="rgb(255,114,114)" stroke-linejoin="miter" stroke-linecap="square" stroke-miterlimit="3"/><line x1="45.5" y1="549" x2="45.5" y2="449" vector-effect="non-scaling-stroke" stroke-width="1" stroke="rgb(255,114,114)" stroke-linejoin="miter" stroke-linecap="square" stroke-miterlimit="3"/><line x1="25.5" y1="549" x2="25.5" y2="449" vector-effect="non-scaling-stroke" stroke-width="1" stroke="rgb(255,114,114)" stroke-linejoin="miter" stroke-linecap="square" stroke-miterlimit="3"/><line x1="5.5" y1="550" x2="5.5" y2="449" vector-effect="non-scaling-stroke" stroke-width="1" stroke="rgb(255,114,114)" stroke-linejoin="miter" stroke-linecap="square" stroke-miterlimit="3"/></g><line x1="204.5" y1="549" x2="6.5" y2="549" vector-effect="non-scaling-stroke" stroke-width="2" stroke="rgb(255,114,114)" stroke-linejoin="miter" stroke-linecap="square" stroke-miterlimit="3"/><line x1="204.5" y1="449" x2="6.5" y2="449" vector-effect="non-scaling-stroke" stroke-width="2" stroke="rgb(255,114,114)" stroke-linejoin="miter" stroke-linecap="square" stroke-miterlimit="3"/></g></g></svg>