<?xml version="1.0" encoding="UTF-8" standalone="no"?><!-- Generator: Gravit.io --><svg xmlns="http://www.w3.org/2000/svg" xmlns:xlink="http://www.w3.org/1999/xlink" style="isolation:isolate" viewBox="0 0 93.5 1000" width="93.5pt" height="1000pt"><defs><clipPath id="_clipPath_qq4JZHydRDULtMVk8ygGiYqJZwWJRAeV"><rect width="93.5" height="1000"/></clipPath></defs><g clip-path="url(#_clipPath_qq4JZHydRDULtMVk8ygGiYqJZwWJRAeV)"><rect width="93.5" height="1000" style="fill:rgb(0,0,0)" fill-opacity="0"/><g><g><linearGradient id="_lgradient_3" x1="0.5966760299625471" y1="-0.1454936594202897" x2="0.5428370786516851" y2="1.922214673913044" gradientTransform="matrix(89,0,0,443,0,8)" gradientUnits="userSpaceOnUse"><stop offset="2.1739130434782608%" stop-opacity="0" style="stop-color:rgb(195,195,195)"/><stop offset="54.347826086956516%" stop-opacity="1" style="stop-color:rgb(195,195,195)"/></linearGradient><path d=" M 0 451 C 97.131 328.675 9.513 24.086 89 8 M 0 451 C 107.5 340.25 10.919 47.281 89 8" fill-rule="evenodd" fill="url(#_lgradient_3)"/><linearGradient id="_lgradient_4" x1="0.5966760299625471" y1="-0.1454936594202897" x2="0.5428370786516851" y2="1.922214673913044" gradientTransform="matrix(89,0,0,-438,0,987)" gradientUnits="userSpaceOnUse"><stop offset="2.1739130434782608%" stop-opacity="0" style="stop-color:rgb(195,195,195)"/><stop offset="54.347826086956516%" stop-opacity="1" style="stop-color:rgb(195,195,195)"/></linearGradient><path d=" M 0 549 C 97.131 669.945 9.513 971.096 89 987 M 0 549 C 107.5 658.5 10.919 948.162 89 987" fill-rule="evenodd" fill="url(#_lgradient_4)"/><g><linearGradient id="_lgradient_5" x1="0.5" y1="0" x2="0.5000000000000001" y2="1" gradientTransform="matrix(2.5,0,0,89,43.25,462.21)" gradientUnits="userSpaceOnUse"><stop offset="0%" stop-opacity="0" style="stop-color:rgb(195,195,195)"/><stop offset="1.7391304347826086%" stop-opacity="0" style="stop-color:rgb(235,235,235)"/><stop offset="46.52173913043478%" stop-opacity="1" style="stop-color:rgb(195,195,195)"/></linearGradient><rect x="43.25" y="462.21" width="2.5" height="89" transform="matrix(0,1,-1,0,551.21,462.21)" fill="url(#_lgradient_5)"/></g></g><path d=" M 63.578 498.398 L 63.578 498.398 L 63.578 491.111 L 63.578 491.111 Q 63.578 490.966 63.716 490.966 L 63.716 490.966 L 64.497 490.966 L 64.497 490.966 Q 64.635 490.966 64.649 491.111 L 64.649 491.111 L 64.78 491.885 L 64.78 491.885 Q 64.822 491.843 64.894 491.767 L 64.894 491.767 L 64.894 491.767 Q 64.967 491.692 65.198 491.491 L 65.198 491.491 L 65.198 491.491 Q 65.429 491.291 65.685 491.146 L 65.685 491.146 L 65.685 491.146 Q 66.348 490.759 67.149 490.759 L 67.149 490.759 L 67.149 490.759 Q 67.951 490.759 68.572 491.146 L 68.572 491.146 L 68.572 491.146 Q 69.194 491.533 69.518 492.244 L 69.518 492.244 L 69.518 492.244 Q 69.719 491.947 70.009 491.657 L 70.009 491.657 L 70.009 491.657 Q 70.299 491.367 70.893 491.063 L 70.893 491.063 L 70.893 491.063 Q 71.487 490.759 72.136 490.759 L 72.136 490.759 L 72.136 490.759 Q 73.393 490.759 74.143 491.605 L 74.143 491.605 L 74.143 491.605 Q 74.892 492.451 74.892 494.012 L 74.892 494.012 L 74.892 498.398 L 74.892 498.398 Q 74.892 498.536 74.754 498.536 L 74.754 498.536 L 73.759 498.536 L 73.759 498.536 Q 73.621 498.536 73.621 498.398 L 73.621 498.398 L 73.621 494.012 L 73.621 494.012 Q 73.621 492.893 73.183 492.32 L 73.183 492.32 L 73.183 492.32 Q 72.744 491.747 72.122 491.747 L 72.122 491.747 L 72.122 491.747 Q 71.501 491.747 70.955 492.13 L 70.955 492.13 L 70.955 492.13 Q 70.409 492.513 70.14 492.852 L 70.14 492.852 L 70.14 492.852 Q 69.871 493.19 69.871 493.232 L 69.871 493.232 L 69.871 498.398 L 69.871 498.398 Q 69.871 498.536 69.733 498.536 L 69.733 498.536 L 68.738 498.536 L 68.738 498.536 Q 68.6 498.536 68.6 498.398 L 68.6 498.398 L 68.6 494.012 L 68.6 494.012 Q 68.6 492.893 68.161 492.32 L 68.161 492.32 L 68.161 492.32 Q 67.723 491.747 67.101 491.747 L 67.101 491.747 L 67.101 491.747 Q 66.479 491.747 65.934 492.13 L 65.934 492.13 L 65.934 492.13 Q 65.388 492.513 65.119 492.852 L 65.119 492.852 L 65.119 492.852 Q 64.849 493.19 64.849 493.232 L 64.849 493.232 L 64.849 498.398 L 64.849 498.398 Q 64.849 498.536 64.711 498.536 L 64.711 498.536 L 63.716 498.536 L 63.716 498.536 Q 63.578 498.536 63.578 498.398 Z  M 77.817 498.105 L 77.817 498.105 L 77.817 498.105 Q 77.02 497.459 77.02 496.343 L 77.02 496.343 L 77.02 496.343 Q 77.02 495.228 77.838 494.582 L 77.838 494.582 L 77.838 494.582 Q 78.657 493.936 80.128 493.936 L 80.128 493.936 L 82.538 493.936 L 82.538 493.867 L 82.538 493.867 Q 82.538 491.747 80.411 491.747 L 80.411 491.747 L 80.411 491.747 Q 79.748 491.747 79.282 492.065 L 79.282 492.065 L 79.282 492.065 Q 78.815 492.382 78.643 492.88 L 78.643 492.88 L 78.643 492.88 Q 78.601 493.018 78.477 493.018 L 78.477 493.018 L 77.586 493.018 L 77.586 493.018 Q 77.427 493.018 77.441 492.88 L 77.441 492.88 L 77.441 492.88 Q 77.551 491.919 78.353 491.339 L 78.353 491.339 L 78.353 491.339 Q 79.154 490.759 80.411 490.759 L 80.411 490.759 L 80.411 490.759 Q 82.055 490.759 82.932 491.571 L 82.932 491.571 L 82.932 491.571 Q 83.809 492.382 83.809 493.867 L 83.809 493.867 L 83.809 498.398 L 83.809 498.398 Q 83.809 498.536 83.664 498.536 L 83.664 498.536 L 82.891 498.536 L 82.891 498.536 Q 82.753 498.536 82.732 498.398 L 82.732 498.398 L 82.607 497.618 L 82.607 497.618 Q 82.525 497.749 82.241 497.98 L 82.241 497.98 L 82.241 497.98 Q 81.958 498.212 81.675 498.357 L 81.675 498.357 L 81.675 498.357 Q 80.929 498.751 79.99 498.751 L 79.99 498.751 L 79.99 498.751 Q 78.615 498.751 77.817 498.105 Z  M 78.29 496.347 L 78.29 496.347 L 78.29 496.347 Q 78.29 497.038 78.75 497.397 L 78.75 497.397 L 78.75 497.397 Q 79.209 497.756 80.059 497.756 L 80.059 497.756 L 80.059 497.756 Q 80.515 497.756 80.939 497.601 L 80.939 497.601 L 80.939 497.601 Q 81.364 497.445 81.637 497.234 L 81.637 497.234 L 81.637 497.234 Q 81.91 497.024 82.124 496.803 L 82.124 496.803 L 82.124 496.803 Q 82.338 496.582 82.438 496.433 L 82.438 496.433 L 82.438 496.433 Q 82.538 496.285 82.538 496.271 L 82.538 496.271 L 82.538 494.931 L 80.128 494.931 L 80.128 494.931 Q 78.29 494.931 78.29 496.347 Z  M 86.496 500.726 L 86.496 500.726 L 86.496 491.111 L 86.496 491.111 Q 86.496 490.973 86.634 490.966 L 86.634 490.966 L 87.415 490.966 L 87.415 490.966 Q 87.553 490.966 87.567 491.111 L 87.567 491.111 L 87.698 491.885 L 87.698 491.885 Q 87.774 491.767 88.047 491.529 L 88.047 491.529 L 88.047 491.529 Q 88.32 491.291 88.568 491.146 L 88.568 491.146 L 88.568 491.146 Q 89.211 490.759 90.033 490.759 L 90.033 490.759 L 90.033 490.759 Q 91.545 490.759 92.523 491.785 L 92.523 491.785 L 92.523 491.785 Q 93.5 492.81 93.5 494.744 L 93.5 494.744 L 93.5 494.744 Q 93.5 496.678 92.495 497.715 L 92.495 497.715 L 92.495 497.715 Q 91.49 498.751 89.888 498.751 L 89.888 498.751 L 89.888 498.751 Q 89.349 498.751 88.82 498.644 L 88.82 498.644 L 88.82 498.644 Q 88.292 498.536 88.023 498.426 L 88.023 498.426 L 87.767 498.322 L 87.767 500.726 L 87.767 500.726 Q 87.767 500.864 87.629 500.871 L 87.629 500.871 L 86.634 500.871 L 86.634 500.871 Q 86.496 500.864 86.496 500.726 Z  M 87.767 493.232 L 87.767 497.335 L 87.767 497.335 Q 88.686 497.756 89.777 497.756 L 89.777 497.756 L 89.777 497.756 Q 90.868 497.756 91.545 497.007 L 91.545 497.007 L 91.545 497.007 Q 92.222 496.257 92.222 494.765 L 92.222 494.765 L 92.222 494.765 Q 92.222 493.273 91.601 492.51 L 91.601 492.51 L 91.601 492.51 Q 90.979 491.747 89.964 491.747 L 89.964 491.747 L 89.964 491.747 Q 88.976 491.747 88.161 492.7 L 88.161 492.7 L 88.161 492.7 Q 87.767 493.156 87.767 493.232 L 87.767 493.232 Z  M 2.878 498.398 L 2.878 498.398 L 2.878 491.533 L 2.878 491.533 Q 2.878 490.117 3.728 489.271 L 3.728 489.271 L 3.728 489.271 Q 4.578 488.424 6.132 488.424 L 6.132 488.424 L 6.132 488.424 Q 7.264 488.424 7.976 488.763 L 7.976 488.763 L 7.976 488.763 Q 8.114 488.832 8.114 488.942 L 8.114 488.942 L 8.114 489.64 L 8.114 489.64 Q 8.114 489.813 7.976 489.751 L 7.976 489.751 L 7.976 489.751 Q 7.271 489.412 6.277 489.412 L 6.277 489.412 L 6.277 489.412 Q 4.156 489.412 4.156 491.533 L 4.156 491.533 L 4.156 492.03 L 7.037 492.03 L 7.037 492.03 Q 7.175 492.03 7.182 492.168 L 7.182 492.168 L 7.182 492.88 L 7.182 492.88 Q 7.182 493.018 7.037 493.018 L 7.037 493.018 L 4.156 493.018 L 4.156 498.398 L 4.156 498.398 Q 4.156 498.536 4.011 498.536 L 4.011 498.536 L 3.023 498.536 L 3.023 498.536 Q 2.878 498.536 2.878 498.398 Z  M 12.39 498.764 L 12.39 498.764 L 12.39 498.764 Q 10.849 498.764 9.837 497.718 L 9.837 497.718 L 9.837 497.718 Q 8.825 496.672 8.825 494.741 L 8.825 494.741 L 8.825 494.741 Q 8.825 492.81 9.837 491.785 L 9.837 491.785 L 9.837 491.785 Q 10.849 490.759 12.483 490.759 L 12.483 490.759 L 12.483 490.759 Q 14.116 490.759 15.149 491.805 L 15.149 491.805 L 15.149 491.805 Q 16.182 492.852 16.182 494.579 L 16.182 494.579 L 16.182 494.931 L 16.182 494.931 Q 16.182 495.214 15.898 495.214 L 15.898 495.214 L 10.11 495.214 L 10.11 495.214 Q 10.228 496.499 10.87 497.134 L 10.87 497.134 L 10.87 497.134 Q 11.512 497.77 12.5 497.77 L 12.5 497.77 L 12.5 497.77 Q 14.061 497.77 14.766 496.499 L 14.766 496.499 L 14.766 496.499 Q 14.848 496.361 14.938 496.361 L 14.938 496.361 L 15.829 496.361 L 15.829 496.361 Q 16.009 496.361 15.967 496.527 L 15.967 496.527 L 15.967 496.527 Q 15.684 497.549 14.807 498.157 L 14.807 498.157 L 14.807 498.157 Q 13.93 498.764 12.39 498.764 Z  M 10.11 494.22 L 10.11 494.22 L 14.911 494.22 L 14.911 494.22 Q 14.848 493.107 14.151 492.427 L 14.151 492.427 L 14.151 492.427 Q 13.453 491.747 12.49 491.747 L 12.49 491.747 L 12.49 491.747 Q 11.526 491.747 10.877 492.375 L 10.877 492.375 L 10.877 492.375 Q 10.228 493.004 10.11 494.22 Z  M 18.678 498.105 L 18.678 498.105 L 18.678 498.105 Q 17.881 497.459 17.881 496.343 L 17.881 496.343 L 17.881 496.343 Q 17.881 495.228 18.699 494.582 L 18.699 494.582 L 18.699 494.582 Q 19.518 493.936 20.989 493.936 L 20.989 493.936 L 23.4 493.936 L 23.4 493.867 L 23.4 493.867 Q 23.4 491.747 21.272 491.747 L 21.272 491.747 L 21.272 491.747 Q 20.609 491.747 20.143 492.065 L 20.143 492.065 L 20.143 492.065 Q 19.677 492.382 19.504 492.88 L 19.504 492.88 L 19.504 492.88 Q 19.462 493.018 19.338 493.018 L 19.338 493.018 L 18.447 493.018 L 18.447 493.018 Q 18.288 493.018 18.302 492.88 L 18.302 492.88 L 18.302 492.88 Q 18.413 491.919 19.214 491.339 L 19.214 491.339 L 19.214 491.339 Q 20.015 490.759 21.272 490.759 L 21.272 490.759 L 21.272 490.759 Q 22.916 490.759 23.793 491.571 L 23.793 491.571 L 23.793 491.571 Q 24.67 492.382 24.67 493.867 L 24.67 493.867 L 24.67 498.398 L 24.67 498.398 Q 24.67 498.536 24.525 498.536 L 24.525 498.536 L 23.752 498.536 L 23.752 498.536 Q 23.614 498.536 23.593 498.398 L 23.593 498.398 L 23.469 497.618 L 23.469 497.618 Q 23.386 497.749 23.103 497.98 L 23.103 497.98 L 23.103 497.98 Q 22.819 498.212 22.536 498.357 L 22.536 498.357 L 22.536 498.357 Q 21.79 498.751 20.851 498.751 L 20.851 498.751 L 20.851 498.751 Q 19.476 498.751 18.678 498.105 Z  M 19.152 496.347 L 19.152 496.347 L 19.152 496.347 Q 19.152 497.038 19.611 497.397 L 19.611 497.397 L 19.611 497.397 Q 20.07 497.756 20.92 497.756 L 20.92 497.756 L 20.92 497.756 Q 21.376 497.756 21.801 497.601 L 21.801 497.601 L 21.801 497.601 Q 22.225 497.445 22.498 497.234 L 22.498 497.234 L 22.498 497.234 Q 22.771 497.024 22.985 496.803 L 22.985 496.803 L 22.985 496.803 Q 23.199 496.582 23.299 496.433 L 23.299 496.433 L 23.299 496.433 Q 23.4 496.285 23.4 496.271 L 23.4 496.271 L 23.4 494.931 L 20.989 494.931 L 20.989 494.931 Q 19.152 494.931 19.152 496.347 Z  M 27.219 495.635 L 27.219 495.635 L 27.219 488.777 L 27.219 488.777 Q 27.219 488.632 27.357 488.632 L 27.357 488.632 L 28.352 488.632 L 28.352 488.632 Q 28.49 488.632 28.49 488.777 L 28.49 488.777 L 28.49 490.966 L 31.377 490.966 L 31.377 490.966 Q 31.515 490.966 31.515 491.111 L 31.515 491.111 L 31.515 491.816 L 31.515 491.816 Q 31.515 491.961 31.377 491.961 L 31.377 491.961 L 28.49 491.961 L 28.49 495.635 L 28.49 495.635 Q 28.49 496.685 28.977 497.221 L 28.977 497.221 L 28.977 497.221 Q 29.464 497.756 30.327 497.756 L 30.327 497.756 L 30.327 497.756 Q 31.087 497.756 31.688 497.549 L 31.688 497.549 L 31.888 497.473 L 31.888 497.473 Q 32.027 497.418 32.027 497.59 L 32.027 497.59 L 32.027 498.281 L 32.027 498.281 Q 32.027 498.398 31.888 498.467 L 31.888 498.467 L 31.888 498.467 Q 31.177 498.751 30.189 498.751 L 30.189 498.751 L 30.189 498.751 Q 28.829 498.751 28.024 497.894 L 28.024 497.894 L 28.024 497.894 Q 27.219 497.038 27.219 495.635 Z  M 33.871 495.421 L 33.871 495.421 L 33.871 491.111 L 33.871 491.111 Q 33.871 490.973 34.009 490.966 L 34.009 490.966 L 35.004 490.966 L 35.004 490.966 Q 35.142 490.966 35.142 491.111 L 35.142 491.111 L 35.142 495.421 L 35.142 495.421 Q 35.142 496.54 35.722 497.148 L 35.722 497.148 L 35.722 497.148 Q 36.302 497.756 37.193 497.756 L 37.193 497.756 L 37.193 497.756 Q 37.601 497.756 37.998 497.601 L 37.998 497.601 L 37.998 497.601 Q 38.395 497.445 38.657 497.234 L 38.657 497.234 L 38.657 497.234 Q 38.92 497.024 39.127 496.803 L 39.127 496.803 L 39.127 496.803 Q 39.528 496.368 39.528 496.271 L 39.528 496.271 L 39.528 491.111 L 39.528 491.111 Q 39.528 490.973 39.666 490.966 L 39.666 490.966 L 40.66 490.966 L 40.66 490.966 Q 40.799 490.966 40.799 491.111 L 40.799 491.111 L 40.799 498.398 L 40.799 498.398 Q 40.799 498.536 40.66 498.536 L 40.66 498.536 L 39.88 498.536 L 39.88 498.536 Q 39.742 498.536 39.728 498.398 L 39.728 498.398 L 39.597 497.618 L 39.597 497.618 Q 39.507 497.756 39.234 497.984 L 39.234 497.984 L 39.234 497.984 Q 38.961 498.212 38.699 498.357 L 38.699 498.357 L 38.699 498.357 Q 38.008 498.751 37.124 498.751 L 37.124 498.751 L 37.124 498.751 Q 35.694 498.751 34.782 497.863 L 34.782 497.863 L 34.782 497.863 Q 33.871 496.975 33.871 495.421 Z  M 43.631 498.398 L 43.631 498.398 L 43.631 491.111 L 43.631 491.111 Q 43.631 490.966 43.769 490.966 L 43.769 490.966 L 44.549 490.966 L 44.549 490.966 Q 44.687 490.966 44.701 491.111 L 44.701 491.111 L 44.832 492.313 L 44.943 492.154 L 44.943 492.154 Q 45.019 492.058 45.292 491.795 L 45.292 491.795 L 45.292 491.795 Q 45.565 491.533 45.9 491.343 L 45.9 491.343 L 45.9 491.343 Q 46.234 491.153 46.784 490.99 L 46.784 490.99 L 46.784 490.99 Q 47.333 490.828 47.941 490.828 L 47.941 490.828 L 48.507 490.828 L 48.507 490.828 Q 48.652 490.828 48.652 490.966 L 48.652 490.966 L 48.652 491.816 L 48.652 491.816 Q 48.652 491.961 48.507 491.961 L 48.507 491.961 L 48.086 491.961 L 48.086 491.961 Q 47.395 491.961 46.815 492.137 L 46.815 492.137 L 46.815 492.137 Q 46.234 492.313 45.889 492.562 L 45.889 492.562 L 45.889 492.562 Q 45.192 493.073 44.984 493.474 L 44.984 493.474 L 44.901 493.653 L 44.901 498.398 L 44.901 498.398 Q 44.901 498.536 44.763 498.536 L 44.763 498.536 L 43.769 498.536 L 43.769 498.536 Q 43.631 498.536 43.631 498.398 Z  M 53.28 498.764 L 53.28 498.764 L 53.28 498.764 Q 51.739 498.764 50.728 497.718 L 50.728 497.718 L 50.728 497.718 Q 49.716 496.672 49.716 494.741 L 49.716 494.741 L 49.716 494.741 Q 49.716 492.81 50.728 491.785 L 50.728 491.785 L 50.728 491.785 Q 51.739 490.759 53.373 490.759 L 53.373 490.759 L 53.373 490.759 Q 55.007 490.759 56.039 491.805 L 56.039 491.805 L 56.039 491.805 Q 57.072 492.852 57.072 494.579 L 57.072 494.579 L 57.072 494.931 L 57.072 494.931 Q 57.072 495.214 56.789 495.214 L 56.789 495.214 L 51 495.214 L 51 495.214 Q 51.118 496.499 51.76 497.134 L 51.76 497.134 L 51.76 497.134 Q 52.403 497.77 53.39 497.77 L 53.39 497.77 L 53.39 497.77 Q 54.951 497.77 55.656 496.499 L 55.656 496.499 L 55.656 496.499 Q 55.739 496.361 55.829 496.361 L 55.829 496.361 L 56.72 496.361 L 56.72 496.361 Q 56.899 496.361 56.858 496.527 L 56.858 496.527 L 56.858 496.527 Q 56.574 497.549 55.697 498.157 L 55.697 498.157 L 55.697 498.157 Q 54.82 498.764 53.28 498.764 Z  M 51 494.22 L 51 494.22 L 55.801 494.22 L 55.801 494.22 Q 55.739 493.107 55.041 492.427 L 55.041 492.427 L 55.041 492.427 Q 54.343 491.747 53.38 491.747 L 53.38 491.747 L 53.38 491.747 Q 52.416 491.747 51.767 492.375 L 51.767 492.375 L 51.767 492.375 Q 51.118 493.004 51 494.22 Z  M 2.229 474.845 L 1.794 474.265 L 1.794 474.265 Q 1.718 474.154 1.822 474.065 L 1.822 474.065 L 3.928 472.441 L 3.928 472.441 Q 3.956 472.428 4.084 472.32 L 4.084 472.32 L 4.084 472.32 Q 4.212 472.213 4.253 472.186 L 4.253 472.186 L 4.391 472.117 L 4.391 472.117 Q 4.612 472.013 4.778 472.013 L 4.778 472.013 L 5.344 472.013 L 5.344 472.013 Q 5.482 472.013 5.482 472.158 L 5.482 472.158 L 5.482 481.78 L 5.482 481.78 Q 5.482 481.918 5.344 481.918 L 5.344 481.918 L 4.35 481.918 L 4.35 481.918 Q 4.212 481.918 4.212 481.78 L 4.212 481.78 L 4.212 473.643 L 2.429 474.873 L 2.429 474.873 Q 2.298 474.956 2.229 474.845 L 2.229 474.845 Z  M 7.479 474.534 L 7.479 474.534 L 7.479 474.534 Q 7.748 473.263 8.774 472.535 L 8.774 472.535 L 8.774 472.535 Q 9.799 471.806 11.461 471.806 L 11.461 471.806 L 11.461 471.806 Q 13.122 471.806 14.085 472.576 L 14.085 472.576 L 14.085 472.576 Q 15.049 473.346 15.049 474.776 L 15.049 474.776 L 15.049 474.776 Q 15.049 475.736 14.431 476.485 L 14.431 476.485 L 14.431 476.485 Q 13.812 477.235 12.935 477.718 L 12.935 477.718 L 11.167 478.644 L 11.167 478.644 Q 9.033 479.715 8.964 480.93 L 8.964 480.93 L 14.959 480.93 L 14.959 480.93 Q 15.097 480.93 15.104 481.068 L 15.104 481.068 L 15.104 481.78 L 15.104 481.78 Q 15.104 481.918 14.959 481.918 L 14.959 481.918 L 7.831 481.918 L 7.831 481.918 Q 7.693 481.918 7.693 481.78 L 7.693 481.78 L 7.693 481.137 L 7.693 481.137 Q 7.693 480.405 8.024 479.797 L 8.024 479.797 L 8.024 479.797 Q 8.356 479.19 8.895 478.765 L 8.895 478.765 L 8.895 478.765 Q 9.433 478.34 10.083 477.967 L 10.083 477.967 L 11.381 477.249 L 11.381 477.249 Q 12.03 476.91 12.569 476.558 L 12.569 476.558 L 12.569 476.558 Q 13.108 476.206 13.439 475.729 L 13.439 475.729 L 13.439 475.729 Q 13.771 475.253 13.771 474.707 L 13.771 474.707 L 13.771 474.707 Q 13.771 473.774 13.136 473.284 L 13.136 473.284 L 13.136 473.284 Q 12.5 472.794 11.416 472.794 L 11.416 472.794 L 11.416 472.794 Q 10.331 472.794 9.641 473.267 L 9.641 473.267 L 9.641 473.267 Q 8.95 473.74 8.68 474.562 L 8.68 474.562 L 8.68 474.562 Q 8.639 474.7 8.508 474.707 L 8.508 474.707 L 7.617 474.707 L 7.617 474.707 Q 7.451 474.707 7.479 474.534 Z  M 17.225 479.017 L 17.225 479.017 L 17.225 472.158 L 17.225 472.158 Q 17.225 472.013 17.363 472.013 L 17.363 472.013 L 18.357 472.013 L 18.357 472.013 Q 18.495 472.013 18.495 472.158 L 18.495 472.158 L 18.495 474.348 L 21.383 474.348 L 21.383 474.348 Q 21.521 474.348 21.521 474.493 L 21.521 474.493 L 21.521 475.197 L 21.521 475.197 Q 21.521 475.342 21.383 475.342 L 21.383 475.342 L 18.495 475.342 L 18.495 479.017 L 18.495 479.017 Q 18.495 480.067 18.982 480.602 L 18.982 480.602 L 18.982 480.602 Q 19.469 481.137 20.333 481.137 L 20.333 481.137 L 20.333 481.137 Q 21.093 481.137 21.693 480.93 L 21.693 480.93 L 21.894 480.854 L 21.894 480.854 Q 22.032 480.799 22.032 480.972 L 22.032 480.972 L 22.032 481.662 L 22.032 481.662 Q 22.032 481.78 21.894 481.849 L 21.894 481.849 L 21.894 481.849 Q 21.182 482.132 20.195 482.132 L 20.195 482.132 L 20.195 482.132 Q 18.834 482.132 18.029 481.276 L 18.029 481.276 L 18.029 481.276 Q 17.225 480.419 17.225 479.017 Z  M 23.876 481.78 L 23.876 481.78 L 23.876 472.158 L 23.876 472.158 Q 23.876 472.013 24.014 472.013 L 24.014 472.013 L 25.009 472.013 L 25.009 472.013 Q 25.147 472.013 25.147 472.158 L 25.147 472.158 L 25.147 475.197 L 25.147 475.197 Q 25.202 475.114 25.485 474.88 L 25.485 474.88 L 25.485 474.88 Q 25.769 474.645 26.031 474.5 L 26.031 474.5 L 26.031 474.5 Q 26.701 474.14 27.551 474.14 L 27.551 474.14 L 27.551 474.14 Q 28.98 474.14 29.892 475.025 L 29.892 475.025 L 29.892 475.025 Q 30.804 475.909 30.804 477.463 L 30.804 477.463 L 30.804 481.78 L 30.804 481.78 Q 30.804 481.918 30.666 481.918 L 30.666 481.918 L 29.671 481.918 L 29.671 481.918 Q 29.533 481.918 29.533 481.78 L 29.533 481.78 L 29.533 477.463 L 29.533 477.463 Q 29.533 476.344 28.953 475.736 L 28.953 475.736 L 28.953 475.736 Q 28.373 475.128 27.482 475.128 L 27.482 475.128 L 27.482 475.128 Q 26.86 475.128 26.273 475.474 L 26.273 475.474 L 26.273 475.474 Q 25.686 475.819 25.416 476.123 L 25.416 476.123 L 25.416 476.123 Q 25.147 476.427 25.147 476.475 L 25.147 476.475 L 25.147 481.78 L 25.147 481.78 Q 25.147 481.918 25.009 481.918 L 25.009 481.918 L 24.014 481.918 L 24.014 481.918 Q 23.876 481.918 23.876 481.78 Z " fill="rgb(195,195,195)"/></g></g></svg>