<?xml version="1.0" encoding="UTF-8" standalone="no"?><!-- Generator: Gravit.io --><svg xmlns="http://www.w3.org/2000/svg" xmlns:xlink="http://www.w3.org/1999/xlink" style="isolation:isolate" viewBox="0 0 120 1000" width="120pt" height="1000pt"><defs><clipPath id="_clipPath_B6ErzuqNvvfE1pJZXrcfOVYMTbYkwiGV"><rect width="120" height="1000"/></clipPath></defs><g clip-path="url(#_clipPath_B6ErzuqNvvfE1pJZXrcfOVYMTbYkwiGV)"><rect width="120" height="1000" style="fill:rgb(0,0,0)" fill-opacity="0"/><line x1="0" y1="498.557" x2="50" y2="498.557" vector-effect="non-scaling-stroke" stroke-width="1" stroke="rgb(195,195,195)" stroke-linejoin="miter" stroke-linecap="square" stroke-miterlimit="3"/><path d=" M 65.942 479.816 L 103.818 479.816 L 103.818 489.087 L 97.102 489.087 L 97.102 486.532 L 80.329 486.532 L 91.178 499.484 L 80.329 512.437 L 97.102 512.437 L 97.102 509.882 L 103.818 509.882 L 103.818 519.153 L 65.942 519.153 L 82.417 499.484 L 65.942 479.816 Z " fill="rgb(195,195,195)"/><circle vector-effect="non-scaling-stroke" cx="84.88022815789469" cy="497.4999999999993" r="32.09999999999998" fill="none" stroke-width="3" stroke="rgb(195,195,195)" stroke-linejoin="miter" stroke-linecap="square" stroke-miterlimit="3"/><linearGradient id="_lgradient_0" x1="0.5966760299625471" y1="-0.1454936594202897" x2="0.5428370786516851" y2="1.922214673913044" gradientTransform="matrix(-89,0,0,443,93.48,5)" gradientUnits="userSpaceOnUse"><stop offset="2.1739130434782608%" stop-opacity="0" style="stop-color:rgb(195,195,195)"/><stop offset="54.347826086956516%" stop-opacity="1" style="stop-color:rgb(195,195,195)"/></linearGradient><path d=" M 93.48 448 C -3.65 325.675 83.967 21.086 4.48 5 M 93.48 448 C -14.02 337.25 82.561 44.281 4.48 5" fill-rule="evenodd" fill="url(#_lgradient_0)"/><linearGradient id="_lgradient_1" x1="0.5966760299625471" y1="-0.1454936594202897" x2="0.5428370786516851" y2="1.922214673913044" gradientTransform="matrix(-89,0,0,-443,93.48,986)" gradientUnits="userSpaceOnUse"><stop offset="2.1739130434782608%" stop-opacity="0" style="stop-color:rgb(195,195,195)"/><stop offset="54.347826086956516%" stop-opacity="1" style="stop-color:rgb(195,195,195)"/></linearGradient><path d=" M 93.48 543 C -3.65 665.325 83.967 969.914 4.48 986 M 93.48 543 C -14.02 653.75 82.561 946.719 4.48 986" fill-rule="evenodd" fill="url(#_lgradient_1)"/></g></svg>