<?xml version="1.0" encoding="UTF-8" standalone="no"?><!-- Generator: Gravit.io --><svg xmlns="http://www.w3.org/2000/svg" xmlns:xlink="http://www.w3.org/1999/xlink" style="isolation:isolate" viewBox="0 0 64 500" width="64pt" height="500pt"><defs><clipPath id="_clipPath_5oRX7xP20F1BBBgNZ4hAHQKByHaOcK0u"><rect width="64" height="500"/></clipPath></defs><g clip-path="url(#_clipPath_5oRX7xP20F1BBBgNZ4hAHQKByHaOcK0u)"><rect width="64" height="500" style="fill:rgb(0,0,0)" fill-opacity="0"/><line x1="0" y1="247.957" x2="13.656" y2="247.957" vector-effect="non-scaling-stroke" stroke-width="1" stroke="rgb(195,195,195)" stroke-linejoin="miter" stroke-linecap="square" stroke-miterlimit="3"/><line x1="48.98" y1="247.957" x2="63.136" y2="247.957" vector-effect="non-scaling-stroke" stroke-width="1" stroke="rgb(195,195,195)" stroke-linejoin="miter" stroke-linecap="square" stroke-miterlimit="3"/><path d=" M 21.792 237.479 L 41.968 237.479 L 41.968 242.418 L 38.391 242.418 L 38.391 241.057 L 29.456 241.057 L 35.235 247.957 L 29.456 254.857 L 38.391 254.857 L 38.391 253.496 L 41.969 253.496 L 41.969 258.435 L 21.792 258.435 L 30.568 247.957 L 21.792 237.479 Z " fill="rgb(195,195,195)"/><circle vector-effect="non-scaling-stroke" cx="31.880228157894685" cy="246.89999999999986" r="17.09999999999995" fill="none" stroke-width="3" stroke="rgb(195,195,195)" stroke-linejoin="miter" stroke-linecap="square" stroke-miterlimit="3"/><linearGradient id="_lgradient_10" x1="0.4999999999999999" y1="0" x2="0.49999999999999994" y2="1" gradientTransform="matrix(2.5,0,0,229.8,30.38,0)" gradientUnits="userSpaceOnUse"><stop offset="0%" stop-opacity="0" style="stop-color:rgb(195,195,195)"/><stop offset="1.7391304347826086%" stop-opacity="0" style="stop-color:rgb(235,235,235)"/><stop offset="46.52173913043478%" stop-opacity="1" style="stop-color:rgb(195,195,195)"/></linearGradient><rect x="30.38" y="0" width="2.5" height="229.8" transform="matrix(1,0,0,1,0,0)" fill="url(#_lgradient_10)"/><linearGradient id="_lgradient_11" x1="0.5" y1="0" x2="0.5000000000000001" y2="1" gradientTransform="matrix(2.5,0,0,234.8,30.4,264)" gradientUnits="userSpaceOnUse"><stop offset="36.08695652173913%" stop-opacity="1" style="stop-color:rgb(195,195,195)"/><stop offset="98.69565217391305%" stop-opacity="0" style="stop-color:rgb(195,195,195)"/></linearGradient><rect x="30.4" y="264" width="2.5" height="234.8" transform="matrix(1,0,0,1,0,0)" fill="url(#_lgradient_11)"/></g></svg>